<?xml version="1.0" encoding="utf-8" standalone="no"?>
<!DOCTYPE svg PUBLIC "-//W3C//DTD SVG 1.1//EN"
  "http://www.w3.org/Graphics/SVG/1.1/DTD/svg11.dtd">
<!-- Created with matplotlib (https://matplotlib.org/) -->
<svg height="345.6pt" version="1.1" viewBox="0 0 460.8 345.6" width="460.8pt" xmlns="http://www.w3.org/2000/svg" xmlns:xlink="http://www.w3.org/1999/xlink">
 <defs>
  <style type="text/css">
*{stroke-linecap:butt;stroke-linejoin:round;}
  </style>
 </defs>
 <g id="figure_1">
  <g id="patch_1">
   <path d="M 0 345.6 
L 460.8 345.6 
L 460.8 0 
L 0 0 
z
" style="fill:#ffffff;"/>
  </g>
  <g id="axes_1">
   <g id="patch_2">
    <path d="M 57.6 307.584 
L 414.72 307.584 
L 414.72 41.472 
L 57.6 41.472 
z
" style="fill:#ffffff;"/>
   </g>
   <g id="matplotlib.axis_1">
    <g id="xtick_1">
     <g id="line2d_1">
      <defs>
       <path d="M 0 0 
L 0 3.5 
" id="mbdb7f91737" style="stroke:#000000;stroke-width:0.8;"/>
      </defs>
      <g>
       <use style="stroke:#000000;stroke-width:0.8;" x="73.832727" xlink:href="#mbdb7f91737" y="307.584"/>
      </g>
     </g>
     <g id="text_1">
      <!-- 0 -->
      <defs>
       <path d="M 31.78125 66.40625 
Q 24.171875 66.40625 20.328125 58.90625 
Q 16.5 51.421875 16.5 36.375 
Q 16.5 21.390625 20.328125 13.890625 
Q 24.171875 6.390625 31.78125 6.390625 
Q 39.453125 6.390625 43.28125 13.890625 
Q 47.125 21.390625 47.125 36.375 
Q 47.125 51.421875 43.28125 58.90625 
Q 39.453125 66.40625 31.78125 66.40625 
z
M 31.78125 74.21875 
Q 44.046875 74.21875 50.515625 64.515625 
Q 56.984375 54.828125 56.984375 36.375 
Q 56.984375 17.96875 50.515625 8.265625 
Q 44.046875 -1.421875 31.78125 -1.421875 
Q 19.53125 -1.421875 13.0625 8.265625 
Q 6.59375 17.96875 6.59375 36.375 
Q 6.59375 54.828125 13.0625 64.515625 
Q 19.53125 74.21875 31.78125 74.21875 
z
" id="DejaVuSans-48"/>
      </defs>
      <g transform="translate(70.651477 322.182437)scale(0.1 -0.1)">
       <use xlink:href="#DejaVuSans-48"/>
      </g>
     </g>
    </g>
    <g id="xtick_2">
     <g id="line2d_2">
      <g>
       <use style="stroke:#000000;stroke-width:0.8;" x="137.490481" xlink:href="#mbdb7f91737" y="307.584"/>
      </g>
     </g>
     <g id="text_2">
      <!-- 50 -->
      <defs>
       <path d="M 10.796875 72.90625 
L 49.515625 72.90625 
L 49.515625 64.59375 
L 19.828125 64.59375 
L 19.828125 46.734375 
Q 21.96875 47.46875 24.109375 47.828125 
Q 26.265625 48.1875 28.421875 48.1875 
Q 40.625 48.1875 47.75 41.5 
Q 54.890625 34.8125 54.890625 23.390625 
Q 54.890625 11.625 47.5625 5.09375 
Q 40.234375 -1.421875 26.90625 -1.421875 
Q 22.3125 -1.421875 17.546875 -0.640625 
Q 12.796875 0.140625 7.71875 1.703125 
L 7.71875 11.625 
Q 12.109375 9.234375 16.796875 8.0625 
Q 21.484375 6.890625 26.703125 6.890625 
Q 35.15625 6.890625 40.078125 11.328125 
Q 45.015625 15.765625 45.015625 23.390625 
Q 45.015625 31 40.078125 35.4375 
Q 35.15625 39.890625 26.703125 39.890625 
Q 22.75 39.890625 18.8125 39.015625 
Q 14.890625 38.140625 10.796875 36.28125 
z
" id="DejaVuSans-53"/>
      </defs>
      <g transform="translate(131.127981 322.182437)scale(0.1 -0.1)">
       <use xlink:href="#DejaVuSans-53"/>
       <use x="63.623047" xlink:href="#DejaVuSans-48"/>
      </g>
     </g>
    </g>
    <g id="xtick_3">
     <g id="line2d_3">
      <g>
       <use style="stroke:#000000;stroke-width:0.8;" x="201.148235" xlink:href="#mbdb7f91737" y="307.584"/>
      </g>
     </g>
     <g id="text_3">
      <!-- 100 -->
      <defs>
       <path d="M 12.40625 8.296875 
L 28.515625 8.296875 
L 28.515625 63.921875 
L 10.984375 60.40625 
L 10.984375 69.390625 
L 28.421875 72.90625 
L 38.28125 72.90625 
L 38.28125 8.296875 
L 54.390625 8.296875 
L 54.390625 0 
L 12.40625 0 
z
" id="DejaVuSans-49"/>
      </defs>
      <g transform="translate(191.604485 322.182437)scale(0.1 -0.1)">
       <use xlink:href="#DejaVuSans-49"/>
       <use x="63.623047" xlink:href="#DejaVuSans-48"/>
       <use x="127.246094" xlink:href="#DejaVuSans-48"/>
      </g>
     </g>
    </g>
    <g id="xtick_4">
     <g id="line2d_4">
      <g>
       <use style="stroke:#000000;stroke-width:0.8;" x="264.805989" xlink:href="#mbdb7f91737" y="307.584"/>
      </g>
     </g>
     <g id="text_4">
      <!-- 150 -->
      <g transform="translate(255.262239 322.182437)scale(0.1 -0.1)">
       <use xlink:href="#DejaVuSans-49"/>
       <use x="63.623047" xlink:href="#DejaVuSans-53"/>
       <use x="127.246094" xlink:href="#DejaVuSans-48"/>
      </g>
     </g>
    </g>
    <g id="xtick_5">
     <g id="line2d_5">
      <g>
       <use style="stroke:#000000;stroke-width:0.8;" x="328.463743" xlink:href="#mbdb7f91737" y="307.584"/>
      </g>
     </g>
     <g id="text_5">
      <!-- 200 -->
      <defs>
       <path d="M 19.1875 8.296875 
L 53.609375 8.296875 
L 53.609375 0 
L 7.328125 0 
L 7.328125 8.296875 
Q 12.9375 14.109375 22.625 23.890625 
Q 32.328125 33.6875 34.8125 36.53125 
Q 39.546875 41.84375 41.421875 45.53125 
Q 43.3125 49.21875 43.3125 52.78125 
Q 43.3125 58.59375 39.234375 62.25 
Q 35.15625 65.921875 28.609375 65.921875 
Q 23.96875 65.921875 18.8125 64.3125 
Q 13.671875 62.703125 7.8125 59.421875 
L 7.8125 69.390625 
Q 13.765625 71.78125 18.9375 73 
Q 24.125 74.21875 28.421875 74.21875 
Q 39.75 74.21875 46.484375 68.546875 
Q 53.21875 62.890625 53.21875 53.421875 
Q 53.21875 48.921875 51.53125 44.890625 
Q 49.859375 40.875 45.40625 35.40625 
Q 44.1875 33.984375 37.640625 27.21875 
Q 31.109375 20.453125 19.1875 8.296875 
z
" id="DejaVuSans-50"/>
      </defs>
      <g transform="translate(318.919993 322.182437)scale(0.1 -0.1)">
       <use xlink:href="#DejaVuSans-50"/>
       <use x="63.623047" xlink:href="#DejaVuSans-48"/>
       <use x="127.246094" xlink:href="#DejaVuSans-48"/>
      </g>
     </g>
    </g>
    <g id="xtick_6">
     <g id="line2d_6">
      <g>
       <use style="stroke:#000000;stroke-width:0.8;" x="392.121497" xlink:href="#mbdb7f91737" y="307.584"/>
      </g>
     </g>
     <g id="text_6">
      <!-- 250 -->
      <g transform="translate(382.577747 322.182437)scale(0.1 -0.1)">
       <use xlink:href="#DejaVuSans-50"/>
       <use x="63.623047" xlink:href="#DejaVuSans-53"/>
       <use x="127.246094" xlink:href="#DejaVuSans-48"/>
      </g>
     </g>
    </g>
   </g>
   <g id="matplotlib.axis_2">
    <g id="ytick_1">
     <g id="line2d_7">
      <defs>
       <path d="M 0 0 
L -3.5 0 
" id="m68225d2ec2" style="stroke:#000000;stroke-width:0.8;"/>
      </defs>
      <g>
       <use style="stroke:#000000;stroke-width:0.8;" x="57.6" xlink:href="#m68225d2ec2" y="295.488"/>
      </g>
     </g>
     <g id="text_7">
      <!-- 0 -->
      <g transform="translate(44.2375 299.287219)scale(0.1 -0.1)">
       <use xlink:href="#DejaVuSans-48"/>
      </g>
     </g>
    </g>
    <g id="ytick_2">
     <g id="line2d_8">
      <g>
       <use style="stroke:#000000;stroke-width:0.8;" x="57.6" xlink:href="#m68225d2ec2" y="264.805404"/>
      </g>
     </g>
     <g id="text_8">
      <!-- 25000 -->
      <g transform="translate(18.7875 268.604622)scale(0.1 -0.1)">
       <use xlink:href="#DejaVuSans-50"/>
       <use x="63.623047" xlink:href="#DejaVuSans-53"/>
       <use x="127.246094" xlink:href="#DejaVuSans-48"/>
       <use x="190.869141" xlink:href="#DejaVuSans-48"/>
       <use x="254.492188" xlink:href="#DejaVuSans-48"/>
      </g>
     </g>
    </g>
    <g id="ytick_3">
     <g id="line2d_9">
      <g>
       <use style="stroke:#000000;stroke-width:0.8;" x="57.6" xlink:href="#m68225d2ec2" y="234.122807"/>
      </g>
     </g>
     <g id="text_9">
      <!-- 50000 -->
      <g transform="translate(18.7875 237.922026)scale(0.1 -0.1)">
       <use xlink:href="#DejaVuSans-53"/>
       <use x="63.623047" xlink:href="#DejaVuSans-48"/>
       <use x="127.246094" xlink:href="#DejaVuSans-48"/>
       <use x="190.869141" xlink:href="#DejaVuSans-48"/>
       <use x="254.492188" xlink:href="#DejaVuSans-48"/>
      </g>
     </g>
    </g>
    <g id="ytick_4">
     <g id="line2d_10">
      <g>
       <use style="stroke:#000000;stroke-width:0.8;" x="57.6" xlink:href="#m68225d2ec2" y="203.440211"/>
      </g>
     </g>
     <g id="text_10">
      <!-- 75000 -->
      <defs>
       <path d="M 8.203125 72.90625 
L 55.078125 72.90625 
L 55.078125 68.703125 
L 28.609375 0 
L 18.3125 0 
L 43.21875 64.59375 
L 8.203125 64.59375 
z
" id="DejaVuSans-55"/>
      </defs>
      <g transform="translate(18.7875 207.239429)scale(0.1 -0.1)">
       <use xlink:href="#DejaVuSans-55"/>
       <use x="63.623047" xlink:href="#DejaVuSans-53"/>
       <use x="127.246094" xlink:href="#DejaVuSans-48"/>
       <use x="190.869141" xlink:href="#DejaVuSans-48"/>
       <use x="254.492188" xlink:href="#DejaVuSans-48"/>
      </g>
     </g>
    </g>
    <g id="ytick_5">
     <g id="line2d_11">
      <g>
       <use style="stroke:#000000;stroke-width:0.8;" x="57.6" xlink:href="#m68225d2ec2" y="172.757614"/>
      </g>
     </g>
     <g id="text_11">
      <!-- 100000 -->
      <g transform="translate(12.425 176.556833)scale(0.1 -0.1)">
       <use xlink:href="#DejaVuSans-49"/>
       <use x="63.623047" xlink:href="#DejaVuSans-48"/>
       <use x="127.246094" xlink:href="#DejaVuSans-48"/>
       <use x="190.869141" xlink:href="#DejaVuSans-48"/>
       <use x="254.492188" xlink:href="#DejaVuSans-48"/>
       <use x="318.115234" xlink:href="#DejaVuSans-48"/>
      </g>
     </g>
    </g>
    <g id="ytick_6">
     <g id="line2d_12">
      <g>
       <use style="stroke:#000000;stroke-width:0.8;" x="57.6" xlink:href="#m68225d2ec2" y="142.075018"/>
      </g>
     </g>
     <g id="text_12">
      <!-- 125000 -->
      <g transform="translate(12.425 145.874236)scale(0.1 -0.1)">
       <use xlink:href="#DejaVuSans-49"/>
       <use x="63.623047" xlink:href="#DejaVuSans-50"/>
       <use x="127.246094" xlink:href="#DejaVuSans-53"/>
       <use x="190.869141" xlink:href="#DejaVuSans-48"/>
       <use x="254.492188" xlink:href="#DejaVuSans-48"/>
       <use x="318.115234" xlink:href="#DejaVuSans-48"/>
      </g>
     </g>
    </g>
    <g id="ytick_7">
     <g id="line2d_13">
      <g>
       <use style="stroke:#000000;stroke-width:0.8;" x="57.6" xlink:href="#m68225d2ec2" y="111.392421"/>
      </g>
     </g>
     <g id="text_13">
      <!-- 150000 -->
      <g transform="translate(12.425 115.19164)scale(0.1 -0.1)">
       <use xlink:href="#DejaVuSans-49"/>
       <use x="63.623047" xlink:href="#DejaVuSans-53"/>
       <use x="127.246094" xlink:href="#DejaVuSans-48"/>
       <use x="190.869141" xlink:href="#DejaVuSans-48"/>
       <use x="254.492188" xlink:href="#DejaVuSans-48"/>
       <use x="318.115234" xlink:href="#DejaVuSans-48"/>
      </g>
     </g>
    </g>
    <g id="ytick_8">
     <g id="line2d_14">
      <g>
       <use style="stroke:#000000;stroke-width:0.8;" x="57.6" xlink:href="#m68225d2ec2" y="80.709825"/>
      </g>
     </g>
     <g id="text_14">
      <!-- 175000 -->
      <g transform="translate(12.425 84.509044)scale(0.1 -0.1)">
       <use xlink:href="#DejaVuSans-49"/>
       <use x="63.623047" xlink:href="#DejaVuSans-55"/>
       <use x="127.246094" xlink:href="#DejaVuSans-53"/>
       <use x="190.869141" xlink:href="#DejaVuSans-48"/>
       <use x="254.492188" xlink:href="#DejaVuSans-48"/>
       <use x="318.115234" xlink:href="#DejaVuSans-48"/>
      </g>
     </g>
    </g>
    <g id="ytick_9">
     <g id="line2d_15">
      <g>
       <use style="stroke:#000000;stroke-width:0.8;" x="57.6" xlink:href="#m68225d2ec2" y="50.027228"/>
      </g>
     </g>
     <g id="text_15">
      <!-- 200000 -->
      <g transform="translate(12.425 53.826447)scale(0.1 -0.1)">
       <use xlink:href="#DejaVuSans-50"/>
       <use x="63.623047" xlink:href="#DejaVuSans-48"/>
       <use x="127.246094" xlink:href="#DejaVuSans-48"/>
       <use x="190.869141" xlink:href="#DejaVuSans-48"/>
       <use x="254.492188" xlink:href="#DejaVuSans-48"/>
       <use x="318.115234" xlink:href="#DejaVuSans-48"/>
      </g>
     </g>
    </g>
   </g>
   <g id="line2d_16">
    <path clip-path="url(#p6f46a57900)" d="M 73.832727 295.486773 
L 148.948877 295.420498 
L 151.495187 295.411907 
L 169.319358 295.194674 
L 176.958289 295.139446 
L 180.777754 295.1284 
L 190.962995 294.89153 
L 192.23615 295.015488 
L 196.055615 294.873121 
L 197.32877 294.949214 
L 199.87508 294.912394 
L 206.240856 294.880485 
L 210.060321 294.820347 
L 213.879786 294.827711 
L 217.699251 294.792119 
L 220.245561 294.855939 
L 224.065027 294.686571 
L 225.338182 294.738117 
L 232.977112 294.317152 
L 236.796578 294.447246 
L 238.069733 294.371153 
L 239.342888 294.460747 
L 241.889198 294.46811 
L 244.435508 294.482838 
L 245.708663 294.352744 
L 249.528128 294.328198 
L 253.347594 294.217741 
L 254.620749 294.025054 
L 257.167059 294.091328 
L 258.440214 293.893732 
L 263.532834 293.897414 
L 264.805989 293.777138 
L 269.89861 293.723137 
L 271.171765 293.640908 
L 272.44492 293.696136 
L 273.718075 293.632317 
L 276.264385 293.669136 
L 277.53754 293.56236 
L 278.810695 293.683863 
L 300.454332 292.876297 
L 301.727487 292.946254 
L 303.000642 292.884889 
L 306.820107 292.402558 
L 308.093262 292.40624 
L 313.185882 291.926364 
L 315.732193 291.37285 
L 317.005348 291.166663 
L 319.551658 290.965385 
L 320.824813 291.029205 
L 327.190588 290.595967 
L 329.736898 290.38978 
L 332.283209 290.287914 
L 336.102674 289.636215 
L 338.648984 289.128111 
L 339.922139 288.75992 
L 341.195294 288.265317 
L 342.468449 287.906944 
L 343.741604 287.260155 
L 345.014759 286.786416 
L 348.834225 284.765046 
L 350.10738 283.812658 
L 351.380535 282.224527 
L 352.65369 281.590011 
L 353.926845 280.605713 
L 355.2 279.830057 
L 356.473155 277.65282 
L 357.74631 277.283402 
L 359.019465 275.271851 
L 360.29262 274.65329 
L 361.565775 273.6064 
L 362.83893 271.926221 
L 364.112086 270.653506 
L 365.385241 268.33022 
L 367.931551 261.328452 
L 369.204706 255.66199 
L 371.751016 248.017114 
L 373.024171 241.065665 
L 374.297326 232.932322 
L 375.570481 221.799449 
L 376.843636 208.83912 
L 378.116791 199.855256 
L 379.389947 186.373323 
L 380.663102 155.493131 
L 381.936257 115.31243 
L 384.482567 53.568 
L 385.755722 55.018673 
L 387.028877 87.963191 
L 388.302032 160.984088 
L 389.575187 212.086566 
L 390.848342 243.029351 
L 392.121497 262.633076 
L 393.394652 274.810385 
L 394.667807 282.845543 
L 395.940963 287.208608 
L 397.214118 290.048589 
L 398.487273 284.282716 
L 398.487273 284.282716 
" style="fill:none;stroke:#0000ff;stroke-linecap:square;stroke-width:1.5;"/>
   </g>
   <g id="line2d_17">
    <path clip-path="url(#p6f46a57900)" d="M 73.832727 295.20572 
L 80.198503 294.978669 
L 82.744813 294.600659 
L 92.930053 294.608023 
L 96.749519 294.746708 
L 99.295829 294.638706 
L 103.115294 294.612932 
L 106.934759 294.447246 
L 108.207914 294.519657 
L 117.12 294.142875 
L 119.66631 294.131829 
L 122.21262 293.929324 
L 131.124706 293.417538 
L 132.397861 293.271489 
L 134.944171 293.264125 
L 136.217326 293.176987 
L 138.763636 293.173305 
L 141.309947 292.81616 
L 145.129412 292.397649 
L 147.675722 292.536334 
L 148.948877 292.748658 
L 154.041497 292.759704 
L 155.314652 292.889798 
L 164.226738 292.508106 
L 165.499893 292.508106 
L 166.773048 292.385376 
L 168.046203 292.486015 
L 169.319358 292.439377 
L 171.865668 292.584199 
L 173.138824 292.600154 
L 175.685134 292.43815 
L 182.050909 292.552289 
L 188.416684 292.606291 
L 189.68984 292.860342 
L 190.962995 292.700793 
L 193.509305 292.954845 
L 194.78246 292.989209 
L 196.055615 292.845615 
L 198.601925 292.877525 
L 199.87508 292.715521 
L 201.148235 292.89348 
L 206.240856 292.805114 
L 207.514011 292.837024 
L 208.787166 292.711839 
L 211.333476 292.729021 
L 220.245561 292.489697 
L 226.611337 292.860342 
L 227.884492 292.792841 
L 229.157647 292.837024 
L 230.430802 293.017437 
L 232.977112 292.921708 
L 235.523422 292.866479 
L 236.796578 292.989209 
L 239.342888 292.854206 
L 240.616043 292.808796 
L 243.162353 292.473742 
L 252.074439 292.120278 
L 253.347594 292.081004 
L 254.620749 291.680903 
L 255.893904 291.899364 
L 260.986524 291.760678 
L 264.805989 291.560628 
L 266.079144 291.316394 
L 267.352299 291.193664 
L 268.625455 291.203482 
L 271.171765 290.538284 
L 272.44492 290.490419 
L 273.718075 290.244958 
L 274.99123 290.366461 
L 276.264385 290.23023 
L 277.53754 290.246185 
L 278.810695 289.97986 
L 281.357005 289.978633 
L 283.903316 289.422664 
L 286.449626 289.29257 
L 287.722781 289.117066 
L 288.995936 289.079019 
L 290.269091 288.912106 
L 291.542246 288.883878 
L 292.815401 288.686282 
L 295.361711 288.564779 
L 296.634866 288.321773 
L 297.908021 287.898353 
L 303.000642 287.52648 
L 304.273797 287.614846 
L 305.546952 287.290838 
L 308.093262 287.444251 
L 309.366417 287.267519 
L 310.639572 287.309247 
L 311.912727 287.031876 
L 313.185882 287.01224 
L 314.459037 286.453816 
L 315.732193 286.06967 
L 317.005348 285.464609 
L 318.278503 285.089054 
L 319.551658 284.070392 
L 320.824813 283.264054 
L 322.097968 282.978092 
L 323.371123 282.83327 
L 324.644278 283.670291 
L 325.917433 283.511969 
L 327.190588 283.145005 
L 328.463743 282.171753 
L 329.736898 281.915247 
L 331.010053 280.999678 
L 333.556364 281.588784 
L 334.829519 281.279503 
L 336.102674 280.517348 
L 339.922139 279.560051 
L 341.195294 278.459159 
L 342.468449 277.911781 
L 345.014759 274.982207 
L 346.287914 271.426708 
L 347.56107 269.883987 
L 348.834225 269.098512 
L 350.10738 270.219041 
L 352.65369 269.925715 
L 353.926845 268.834642 
L 355.2 267.574201 
L 356.473155 265.855976 
L 357.74631 263.333866 
L 360.29262 252.041443 
L 361.565775 249.415013 
L 364.112086 239.416169 
L 365.385241 235.145151 
L 366.658396 226.137968 
L 367.931551 221.830132 
L 369.204706 215.502153 
L 370.477861 206.013867 
L 371.751016 200.100717 
L 373.024171 184.456275 
L 374.297326 173.972645 
L 375.570481 179.040183 
L 376.843636 169.834176 
L 378.116791 180.663906 
L 379.389947 199.881029 
L 380.663102 214.369351 
L 381.936257 235.653255 
L 383.209412 262.634303 
L 384.482567 276.650113 
L 385.755722 283.498469 
L 387.028877 288.000219 
L 388.302032 290.463418 
L 389.575187 291.419488 
L 390.848342 293.011301 
L 392.121497 293.617589 
L 394.667807 294.506157 
L 397.214118 295.090354 
L 398.487273 295.06458 
L 398.487273 295.06458 
" style="fill:none;stroke:#008000;stroke-linecap:square;stroke-width:1.5;"/>
   </g>
   <g id="line2d_18">
    <path clip-path="url(#p6f46a57900)" d="M 73.832727 281.145727 
L 75.105882 287.6038 
L 76.379037 286.326177 
L 77.652193 286.188719 
L 78.925348 286.354405 
L 82.744813 288.415048 
L 85.291123 289.303616 
L 89.110588 289.658307 
L 91.656898 289.685307 
L 92.930053 289.643579 
L 95.476364 289.744218 
L 96.749519 289.551531 
L 98.022674 289.919722 
L 100.568984 289.774901 
L 101.842139 289.778582 
L 103.115294 289.906222 
L 104.388449 289.778582 
L 105.661604 289.972496 
L 108.207914 289.936905 
L 110.754225 290.080499 
L 117.12 289.833811 
L 119.66631 289.519621 
L 123.485775 289.63867 
L 124.75893 289.619033 
L 127.305241 289.879221 
L 128.578396 289.750354 
L 136.217326 290.937157 
L 137.490481 290.873337 
L 140.036791 291.337258 
L 141.309947 291.387578 
L 142.583102 291.569219 
L 145.129412 291.637948 
L 146.402567 291.872363 
L 147.675722 291.763133 
L 150.222032 291.738587 
L 156.587807 291.599901 
L 159.134118 291.671085 
L 160.407273 291.88709 
L 165.499893 292.189007 
L 166.773048 292.338738 
L 168.046203 292.261418 
L 169.319358 292.430786 
L 174.411979 292.495833 
L 178.231444 292.115369 
L 180.777754 291.973002 
L 182.050909 291.639175 
L 183.324064 291.593765 
L 184.597219 291.089343 
L 187.143529 290.740789 
L 189.68984 291.062342 
L 190.962995 291.166663 
L 193.509305 291.633039 
L 197.32877 291.9055 
L 199.87508 291.836771 
L 202.42139 291.650221 
L 203.694545 291.728768 
L 204.967701 291.613402 
L 206.240856 291.658812 
L 211.333476 291.328667 
L 212.606631 291.124935 
L 215.152941 291.245211 
L 218.972406 291.030432 
L 220.245561 291.159299 
L 221.518717 290.971522 
L 222.791872 291.034114 
L 224.065027 290.946976 
L 226.611337 290.545647 
L 227.884492 290.686787 
L 232.977112 289.970042 
L 235.523422 289.955314 
L 236.796578 290.231458 
L 238.069733 289.958996 
L 239.342888 289.536804 
L 240.616043 289.82522 
L 241.889198 289.636215 
L 243.162353 289.637443 
L 244.435508 289.525758 
L 245.708663 289.579759 
L 246.981818 289.123202 
L 248.254973 288.867923 
L 249.528128 289.009063 
L 253.347594 288.330364 
L 254.620749 288.498505 
L 255.893904 288.796739 
L 257.167059 288.804103 
L 258.440214 288.508323 
L 259.713369 288.48255 
L 260.986524 288.98329 
L 262.259679 288.734147 
L 263.532834 289.070428 
L 266.079144 288.688737 
L 267.352299 289.065519 
L 269.89861 288.638417 
L 271.171765 288.189224 
L 272.44492 288.156087 
L 274.99123 287.254018 
L 276.264385 286.150672 
L 277.53754 284.837457 
L 278.810695 282.354621 
L 280.08385 282.277301 
L 281.357005 282.576763 
L 285.176471 284.023755 
L 286.449626 284.541677 
L 287.722781 285.317333 
L 288.995936 284.723318 
L 290.269091 284.524495 
L 291.542246 283.743929 
L 292.815401 283.705883 
L 294.088556 283.373284 
L 295.361711 282.922863 
L 296.634866 282.921636 
L 297.908021 281.852654 
L 299.181176 280.427754 
L 300.454332 279.631234 
L 301.727487 279.801829 
L 304.273797 281.550737 
L 305.546952 281.888246 
L 309.366417 282.062523 
L 310.639572 281.036497 
L 311.912727 279.625098 
L 313.185882 279.51464 
L 314.459037 278.951308 
L 315.732193 279.276543 
L 317.005348 278.854351 
L 318.278503 277.160671 
L 319.551658 274.223733 
L 320.824813 276.376424 
L 322.097968 274.96257 
L 323.371123 273.850633 
L 324.644278 273.602718 
L 325.917433 271.704079 
L 327.190588 270.124538 
L 328.463743 270.000581 
L 329.736898 269.498613 
L 331.010053 270.246042 
L 332.283209 270.200631 
L 333.556364 269.6913 
L 334.829519 267.868754 
L 336.102674 266.528538 
L 337.375829 268.554817 
L 338.648984 264.855723 
L 339.922139 265.663289 
L 341.195294 268.606364 
L 342.468449 265.347872 
L 343.741604 262.677259 
L 345.014759 260.452157 
L 346.287914 251.222832 
L 347.56107 248.477353 
L 348.834225 248.111616 
L 350.10738 244.996719 
L 351.380535 237.473347 
L 352.65369 241.509949 
L 353.926845 245.966289 
L 355.2 244.573299 
L 356.473155 247.35437 
L 357.74631 248.705632 
L 359.019465 237.591168 
L 360.29262 234.499589 
L 361.565775 244.594164 
L 362.83893 246.503848 
L 364.112086 249.638382 
L 365.385241 246.32098 
L 366.658396 251.039963 
L 367.931551 250.04462 
L 369.204706 266.065845 
L 370.477861 276.8698 
L 371.751016 286.623184 
L 374.297326 289.927086 
L 376.843636 291.442806 
L 378.116791 291.537309 
L 379.389947 292.138688 
L 380.663102 293.350037 
L 381.936257 294.171103 
L 383.209412 294.447246 
L 384.482567 294.853484 
L 385.755722 295.076853 
L 389.575187 295.190992 
L 392.121497 295.17381 
L 398.487273 295.457317 
L 398.487273 295.457317 
" style="fill:none;stroke:#ff0000;stroke-linecap:square;stroke-width:1.5;"/>
   </g>
   <g id="patch_3">
    <path d="M 57.6 307.584 
L 57.6 41.472 
" style="fill:none;stroke:#000000;stroke-linecap:square;stroke-linejoin:miter;stroke-width:0.8;"/>
   </g>
   <g id="patch_4">
    <path d="M 414.72 307.584 
L 414.72 41.472 
" style="fill:none;stroke:#000000;stroke-linecap:square;stroke-linejoin:miter;stroke-width:0.8;"/>
   </g>
   <g id="patch_5">
    <path d="M 57.6 307.584 
L 414.72 307.584 
" style="fill:none;stroke:#000000;stroke-linecap:square;stroke-linejoin:miter;stroke-width:0.8;"/>
   </g>
   <g id="patch_6">
    <path d="M 57.6 41.472 
L 414.72 41.472 
" style="fill:none;stroke:#000000;stroke-linecap:square;stroke-linejoin:miter;stroke-width:0.8;"/>
   </g>
  </g>
 </g>
 <defs>
  <clipPath id="p6f46a57900">
   <rect height="266.112" width="357.12" x="57.6" y="41.472"/>
  </clipPath>
 </defs>
</svg>
